<?xml version="1.0" encoding="UTF-8"?>
<!DOCTYPE svg PUBLIC "-//W3C//DTD SVG 1.1//EN" "http://www.w3.org/Graphics/SVG/1.1/DTD/svg11.dtd">
<svg xmlns="http://www.w3.org/2000/svg" version="1.1" width="32px" height="32px" style="shape-rendering:geometricPrecision; text-rendering:geometricPrecision; image-rendering:optimizeQuality; fill-rule:evenodd; clip-rule:evenodd" xmlns:xlink="http://www.w3.org/1999/xlink">
<g><path style="opacity:0.953" fill="#000000" d="M 1.5,3.5 C 10.8333,3.5 20.1667,3.5 29.5,3.5C 29.5,11.5 29.5,19.5 29.5,27.5C 27.396,27.7989 25.396,27.4656 23.5,26.5C 24.6283,25.7379 25.7949,25.0712 27,24.5C 27.4993,19.5111 27.6659,14.5111 27.5,9.5C 19.5,9.5 11.5,9.5 3.5,9.5C 3.81335,12.2469 3.48002,14.9135 2.5,17.5C 1.50671,12.8804 1.17338,8.21369 1.5,3.5 Z M 4.5,5.5 C 12.3401,5.03598 20.0068,5.53598 27.5,7C 19.5,7.66667 11.5,7.66667 3.5,7C 4.05596,6.61742 4.38929,6.11742 4.5,5.5 Z"/></g>
<g><path style="opacity:0.662" fill="#000000" d="M 8.5,26.5 C 5.38942,27.1493 3.05608,25.816 1.5,22.5C 2.83333,20.5 4.5,18.8333 6.5,17.5C 7.30806,17.8076 7.97473,18.3076 8.5,19C 7.31277,20.0195 6.31277,21.1861 5.5,22.5C 6.52435,23.8518 7.52435,25.1851 8.5,26.5 Z"/></g>
<g><path style="opacity:0.64" fill="#000000" d="M 8.5,26.5 C 9.65719,23.7273 10.3239,20.7273 10.5,17.5C 11.5,17.5 12.5,17.5 13.5,17.5C 13.1667,20.8333 12.8333,24.1667 12.5,27.5C 10.901,27.7678 9.56764,27.4345 8.5,26.5 Z"/></g>
<g><path style="opacity:0.658" fill="#000000" d="M 15.5,17.5 C 22.8661,20.2119 23.1994,23.5452 16.5,27.5C 15.6919,27.1924 15.0253,26.6924 14.5,26C 18.5,23.6667 18.5,21.3333 14.5,19C 15.056,18.6174 15.3893,18.1174 15.5,17.5 Z"/></g>
</svg>
