<?xml version="1.0" standalone="no"?>
<!DOCTYPE svg PUBLIC "-//W3C//DTD SVG 20010904//EN"
 "http://www.w3.org/TR/2001/REC-SVG-20010904/DTD/svg10.dtd">
<svg version="1.0" xmlns="http://www.w3.org/2000/svg"
 width="16.000000pt" height="16.000000pt" viewBox="0 0 32.000000 32.000000"
 preserveAspectRatio="xMidYMid meet">

<g transform="translate(0.000000,32.000000) scale(0.100000,-0.100000)"
fill="#fb83ae" stroke="none">
<path d="M135 280 c-121 -50 -121 -50 -98 -68 12 -9 23 -30 25 -47 2 -24 12
-34 49 -53 37 -18 51 -21 72 -13 30 12 32 9 15 -18 -15 -24 -4 -51 22 -51 27
0 36 25 20 56 -11 20 -11 27 3 42 10 10 17 30 17 44 0 15 9 32 23 41 22 15 21
16 -33 40 -74 33 -92 37 -115 27z m80 -34 c50 -23 50 -23 22 -31 -17 -4 -39
-3 -54 4 -31 14 -43 6 -18 -13 33 -24 -1 -27 -56 -4 l-53 22 50 22 c27 13 51
23 54 23 3 0 28 -11 55 -23z m-92 -71 c26 -11 43 -12 62 -5 22 8 25 7 25 -14
0 -36 -39 -49 -89 -29 -32 12 -41 21 -41 40 0 27 -2 27 43 8z m114 -22 c-3
-10 -5 -4 -5 12 0 17 2 24 5 18 2 -7 2 -21 0 -30z m-7 -93 c0 -5 -4 -10 -10
-10 -5 0 -10 5 -10 10 0 6 5 10 10 10 6 0 10 -4 10 -10z"/>
</g>
</svg>
