<?xml version="1.0" encoding="UTF-8"?>
<!DOCTYPE svg PUBLIC "-//W3C//DTD SVG 1.1//EN" "http://www.w3.org/Graphics/SVG/1.1/DTD/svg11.dtd">
<svg xmlns="http://www.w3.org/2000/svg" version="1.1" width="32px" height="32px" style="shape-rendering:geometricPrecision; text-rendering:geometricPrecision; image-rendering:optimizeQuality; fill-rule:evenodd; clip-rule:evenodd" xmlns:xlink="http://www.w3.org/1999/xlink">
<g><path style="opacity:0.93" fill="#000000" d="M 5.5,1.5 C 11.5,1.5 17.5,1.5 23.5,1.5C 23.5,10.1667 23.5,18.8333 23.5,27.5C 17.5,27.5 11.5,27.5 5.5,27.5C 5.5,18.8333 5.5,10.1667 5.5,1.5 Z M 8.5,3.5 C 12.7675,3.20299 16.9341,3.53632 21,4.5C 21.8112,11.4143 21.6445,18.2476 20.5,25C 16.2452,25.7961 12.0785,25.6295 8,24.5C 7.20548,17.4197 7.37215,10.4197 8.5,3.5 Z"/></g>
<g><path style="opacity:0.769" fill="#000000" d="M 13.5,5.5 C 15.337,5.63945 15.6704,6.30612 14.5,7.5C 13.7025,7.04311 13.3691,6.37644 13.5,5.5 Z"/></g>
<g><path style="opacity:1" fill="#000000" d="M 11.5,21.5 C 13.604,21.2011 15.604,21.5344 17.5,22.5C 16.5,22.8333 15.5,23.1667 14.5,23.5C 12.9704,23.3601 11.9704,22.6935 11.5,21.5 Z"/></g>
</svg>
